#!OML:ASF F:\VICON\USERDATA\INSTALL\rory3\rory3.ASF
:FULLY-SPECIFIED
:DEGREES
235
root 3.05579 17.4872 28.3445 -3.03296 -30.3674 2.27677
lowerback 36.0252 0.544836 5.03744
upperback 6.06825 3.47183 8.74581
thorax -11.7639 1.33339 5.35722
lowerneck -8.09935 0.804721 -1.02902
upperneck 11.6995 1.60629 -3.22125
head 4.86347 0.530242 -0.724044
rclavicle 1.90833e-014 -5.08889e-014
rhumerus -25.3182 11.3092 -67.6494
rradius 71.5242
rwrist 39.311
rhand -30.9186 12.0207
rfingers 7.12502
rthumb -4.2045 -17.9176
lclavicle 1.90833e-014 -5.08889e-014
lhumerus -44.0799 6.5803 81.5276
lradius 47.8125
lwrist 9.68544
lhand -9.44089 48.0421
lfingers 7.12502
lthumb 16.522 77.3587
rfemur -8.9292 15.2314 15.8737
rtibia 59.1336
rfoot -10.5926 -4.45934
rtoes -10.3583
lfemur -31.5248 6.63105 -19.7044
ltibia 34.7999
lfoot 4.9435 8.04104
ltoes -16.364
236
root 3.09415 17.4712 28.1114 -2.98591 -30.4251 3.77976
lowerback 35.2991 0.591559 4.98696
upperback 6.37407 3.29848 7.88014
thorax -11.0448 1.26693 4.50569
lowerneck -8.83711 0.692458 -0.784446
upperneck 11.0872 1.39889 -3.01558
head 4.79582 0.457151 -0.711513
rclavicle 5.24792e-014 -5.725e-014
rhumerus -21.9983 9.65619 -67.9033
rradius 65.6039
rwrist 40.115
rhand -30.3444 10.4217
rfingers 7.12502
rthumb -3.65009 -19.5268
lclavicle 5.24792e-014 -5.725e-014
lhumerus -42.5411 5.52193 81.4293
lradius 48.1021
lwrist 9.92907
lhand -9.49893 48.3238
lfingers 7.12502
lthumb 16.4661 77.645
rfemur -8.85533 15.17 13.9997
rtibia 57.0658
rfoot -13.9983 -3.59975
rtoes -17.2893
lfemur -32.469 5.73275 -20.7175
ltibia 33.7434
lfoot 6.48253 8.94612
ltoes -14.8008
237
root 3.11655 17.4587 27.8784 -2.80085 -30.809 3.75996
lowerback 35.7142 0.871706 5.17273
upperback 6.48307 3.75316 8.03537
thorax -11.1028 1.45986 4.38924
lowerneck -9.53908 0.541239 -0.944297
upperneck 10.9625 1.25989 -3.25433
head 4.87492 0.363244 -0.767251
rclavicle -3.02153e-014 7.63333e-014
rhumerus -19.5626 8.70799 -67.3118
rradius 60.309
rwrist 40.5747
rhand -29.9776 11.7439
rfingers 7.12502
rthumb -3.2958 -18.2104
lclavicle -3.02153e-014 7.63333e-014
lhumerus -41.8364 5.07267 82.0412
lradius 48.561
lwrist 9.76186
lhand -9.50819 48.4545
lfingers 7.12502
lthumb 16.4572 77.7764
rfemur -8.29755 15.4642 14.0325
rtibia 55.0533
rfoot -16.8611 -3.75133
rtoes -20.201
lfemur -32.7552 4.90054 -19.9621
ltibia 32.6718
lfoot 7.56443 9.88602
ltoes -13.7412
238
root 3.13892 17.448 27.636 -2.43971 -31.2903 2.84215
lowerback 36.4203 1.06867 6.04538
upperback 6.7032 4.39142 8.44522
thorax -11.1119 1.70682 4.11065
lowerneck -10.1285 0.363961 -1.27183
upperneck 10.7174 1.11086 -3.52723
head 4.89733 0.257762 -0.808082
rclavicle -1.59028e-014 -7.63333e-014
rhumerus -16.8569 7.34957 -66.5766
rradius 54.4842
rwrist 41.0096
rhand -29.5139 12.2138
rfingers 7.12502
rthumb -2.84799 -17.7469
lclavicle -1.59028e-014 -7.63333e-014
lhumerus -40.9963 4.50157 82.8236
lradius 48.9918
lwrist 9.48123
lhand -9.74954 48.3932
lfingers 7.12502
lthumb 16.2248 77.7343
rfemur -7.84101 15.7579 15.1166
rtibia 53.3682
rfoot -19.068 -4.27029
rtoes -22.9384
lfemur -32.7094 3.85918 -18.1382
ltibia 31.4566
lfoot 8.89795 10.8484
ltoes -13.6457
239
root 3.16521 17.4339 27.3773 -2.02858 -31.7814 2.0291
lowerback 37.3563 1.34451 6.82843
upperback 6.69645 5.15876 8.85112
thorax -11.3468 2.00597 3.87902
lowerneck -10.2121 0.143866 -1.67212
upperneck 10.2224 0.895821 -3.82832
head 4.75697 0.125462 -0.850582
rclavicle -6.04305e-014 1.59028e-014
rhumerus -14.5862 5.63227 -65.7198
rradius 49.0417
rwrist 41.6002
rhand -28.5407 12.4523
rfingers 7.12502
rthumb -1.90815 -17.5189
lclavicle -6.04305e-014 1.59028e-014
lhumerus -40.3189 3.70026 83.6983
lradius 49.5028
lwrist 9.16884
lhand -9.91262 48.5183
lfingers 7.12502
lthumb 16.0678 77.8721
rfemur -7.93919 15.8504 16.0794
rtibia 52.1103
rfoot -20.4534 -4.40662
rtoes -21.9708
lfemur -32.8687 2.57498 -16.2822
ltibia 30.3966
lfoot 10.5601 11.7354
ltoes -15.588
240
root 3.19344 17.426 27.1129 -1.82193 -32.1447 1.67294
lowerback 38.3037 1.65886 7.24217
upperback 6.71823 5.84584 9.19603
thorax -11.6902 2.27493 3.74046
lowerneck -10.5233 -0.104888 -1.93211
upperneck 9.8534 0.63791 -4.1858
head 4.69387 -0.0298423 -0.936733
rclavicle 3.97569e-014 -2.54444e-014
rhumerus -12.4574 3.36865 -64.8998
rradius 43.7074
rwrist 42.4977
rhand -27.8025 13.0014
rfingers 7.12502
rthumb -1.19518 -16.975
lclavicle 3.97569e-014 -2.54444e-014
lhumerus -39.7343 2.81046 84.5582
lradius 50.1015
lwrist 9.1246
lhand -10.0436 48.3139
lfingers 7.12502
lthumb 15.9417 77.6778
rfemur -8.52002 15.4468 16.5775
rtibia 51.3944
rfoot -21.4956 -4.77456
rtoes -21.2187
lfemur -33.0551 0.884109 -14.7024
ltibia 29.3097
lfoot 12.7175 12.9578
ltoes -16.339
241
root 3.22046 17.4273 26.8532 -1.4172 -32.4506 0.989641
lowerback 39.1425 1.83683 8.00953
upperback 6.80171 6.48701 9.5592
thorax -11.8697 2.51093 3.46108
lowerneck -11.1652 -0.240078 -1.90224
upperneck 9.54607 0.532161 -4.80109
head 4.70785 -0.121332 -1.14056
rclavicle 0 3.18055e-014
rhumerus -10.1106 0.114006 -64.1833
rradius 38.0822
rwrist 43.9583
rhand -26.8158 13.8669
rfingers 7.12502
rthumb -0.24219 -16.1127
lclavicle 0 3.18055e-014
lhumerus -39.1518 1.99175 85.3297
lradius 50.7999
lwrist 8.88155
lhand -9.88638 47.9248
lfingers 7.12502
lthumb 16.0931 77.2766
rfemur -9.38707 14.8228 17.4655
rtibia 51.1364
rfoot -22.0764 -5.55561
rtoes -20.799
lfemur -33.2797 -1.0826 -12.6726
ltibia 28.2071
lfoot 14.0835 16.1897
ltoes -9.88321
242
root 3.24461 17.4299 26.5969 -0.801967 -32.7816 0.264441
lowerback 39.6319 2.09796 8.86716
upperback 6.92872 7.23896 10.0048
thorax -11.8685 2.8021 3.18624
lowerneck -11.4601 -0.397653 -1.97413
upperneck 9.15459 0.403572 -5.51953
head 4.63768 -0.228266 -1.36042
rclavicle -4.77083e-014 -1.27222e-014
rhumerus -8.12794 -3.83968 -63.2482
rradius 33.1869
rwrist 45.0601
rhand -25.3002 13.9008
rfingers 7.12502
rthumb 1.22164 -16.0755
lclavicle -4.77083e-014 -1.27222e-014
lhumerus -38.5445 1.00764 86.2903
lradius 51.5679
lwrist 8.51712
lhand -9.47842 48.3095
lfingers 7.12502
lthumb 16.4859 77.629
rfemur -10.7199 14.1498 18.3711
rtibia 51.2891
rfoot -22.3098 -6.27052
rtoes -20.2225
lfemur -33.6822 -3.19522 -10.4319
ltibia 27.0091
lfoot 16.5321 16.9511
ltoes -14.6144
243
root 3.2675 17.4302 26.3377 -0.374176 -33.0758 -0.267659
lowerback 40.2733 2.35669 9.56375
upperback 7.07958 7.933 10.366
thorax -11.8873 3.0681 2.9245
lowerneck -11.4626 -0.5536 -2.00255
upperneck 8.57766 0.238289 -6.2017
head 4.46011 -0.338384 -1.57553
rclavicle -1.08139e-013 -5.725e-014
rhumerus -6.54364 -8.21726 -62.4659
rradius 29.3372
rwrist 44.7464
rhand -23.3293 12.7737
rfingers 7.12502
rthumb 3.12511 -17.1831
lclavicle -1.08139e-013 -5.725e-014
lhumerus -37.9488 0.0799673 87.1096
lradius 52.2907
lwrist 8.33875
lhand -9.40674 48.104
lfingers 7.12502
lthumb 16.5549 77.4179
rfemur -12.1709 13.506 19.1719
rtibia 51.7425
rfoot -22.1367 -6.94663
rtoes -19.8216
lfemur -34.0475 -5.33101 -8.27788
ltibia 25.8178
lfoot 19.1 17.8907
ltoes -15.6836
244
root 3.2847 17.4359 26.0789 -0.194246 -33.127 -0.334183
lowerback 40.8286 2.62365 9.93704
upperback 7.34221 8.46761 10.6389
thorax -11.7698 3.28417 2.7999
lowerneck -12.206 -0.71529 -1.87162
upperneck 8.10186 0.0621873 -6.79238
head 4.43426 -0.457454 -1.79435
rclavicle -7.79236e-014 -1.27222e-014
rhumerus -5.05694 -13.3717 -61.8958
rradius 26.1913
rwrist 42.9681
rhand -21.7232 10.8268
rfingers 7.12502
rthumb 4.67609 -19.1016
lclavicle -7.79236e-014 -1.27222e-014
lhumerus -37.2352 -0.960173 87.855
lradius 53.1576
lwrist 7.8991
lhand -9.07851 47.6087
lfingers 7.12502
lthumb 16.8709 76.8959
rfemur -13.7119 12.7623 19.588
rtibia 52.3812
rfoot -21.8322 -7.47934
rtoes -18.8981
lfemur -34.4762 -7.65465 -6.46882
ltibia 24.6378
lfoot 20.7061 19.8799
ltoes -11.674
245
root 3.29893 17.436 25.8233 -0.205968 -32.9188 -0.296182
lowerback 41.5813 2.85005 10.2349
upperback 7.46469 9.00096 11.0139
thorax -11.9115 3.48666 2.81227
lowerneck -12.5408 -0.976873 -2.0052
upperneck 7.69547 -0.234417 -7.26363
head 4.35819 -0.632037 -1.9402
rclavicle 7.15625e-014 5.40694e-014
rhumerus -4.20064 -17.9389 -61.1134
rradius 24.0897
rwrist 38.3928
rhand -20.4751 8.36068
rfingers 7.12502
rthumb 5.88109 -21.5377
lclavicle 7.15625e-014 5.40694e-014
lhumerus -36.8513 -1.90447 88.7535
lradius 54.0662
lwrist 7.22662
lhand -8.73314 47.1236
lfingers 7.12502
lthumb 17.2033 76.3821
rfemur -15.0299 11.9762 19.9108
rtibia 53.0913
rfoot -21.954 -7.51454
rtoes -16.5696
lfemur -34.7707 -9.75394 -4.95194
ltibia 23.4921
lfoot 20.1023 23.0971
ltoes 0.3704
246
root 3.31761 17.4427 25.587 -0.326126 -32.5919 0.255744
lowerback 42.1172 3.03173 10.2514
upperback 7.46114 9.35354 11.2857
thorax -12.1539 3.62008 2.92623
lowerneck -12.9823 -1.24733 -2.31624
upperneck 7.63575 -0.505174 -7.51892
head 4.40698 -0.799039 -1.99365
rclavicle -6.36111e-015 3.18055e-014
rhumerus -3.94092 -21.9841 -60.1547
rradius 22.9886
rwrist 32.1998
rhand -20.2278 5.84896
rfingers 7.12502
rthumb 6.11993 -24.0426
lclavicle -6.36111e-015 3.18055e-014
lhumerus -36.8462 -2.60764 89.6106
lradius 54.9836
lwrist 6.66402
lhand -8.54303 46.5476
lfingers 7.12502
lthumb 17.3863 75.79
rfemur -16.4242 11.181 19.6172
rtibia 53.8566
rfoot -22.2942 -7.29109
rtoes -13.7437
lfemur -34.8819 -10.6478 -4.64255
ltibia 22.2696
lfoot 17.4885 26.1833
ltoes 19.566
247
root 3.35919 17.4528 25.3642 -0.412619 -31.7464 1.63255
lowerback 41.9312 3.00143 10.0722
upperback 7.41908 9.23432 11.2488
thorax -12.1654 3.58567 3.02701
lowerneck -13.535 -1.36849 -2.10202
upperneck 7.3869 -0.653608 -7.97372
head 4.4158 -0.898375 -2.18494
rclavicle -5.725e-014 -3.49861e-014
rhumerus -3.85246 -25.8511 -59.2522
rradius 22.5094
rwrist 25.6039
rhand -20.9392 3.8161
rfingers 7.12502
rthumb 5.43301 -26.0942
lclavicle -5.725e-014 -3.49861e-014
lhumerus -36.8044 -3.0794 90.2481
lradius 55.953
lwrist 6.05886
lhand -8.52169 46.0546
lfingers 7.12502
lthumb 17.4068 75.2952
rfemur -18.1338 9.84337 18.2919
rtibia 54.5352
rfoot -22.5711 -6.90501
rtoes -12.8099
lfemur -35.3866 -10.3702 -5.99654
ltibia 21.4018
lfoot 22.0782 17.4097
ltoes -2.87603
